<?xml version="1.0" encoding="utf-8"?>
<!-- Generator: Adobe Illustrator 23.0.5, SVG Export Plug-In . SVG Version: 6.00 Build 0)  -->
<svg version="1.1" id="Layer_1" xmlns="http://www.w3.org/2000/svg" xmlns:xlink="http://www.w3.org/1999/xlink" x="0px" y="0px"
	 viewBox="0 0 2000 2000" style="enable-background:new 0 0 2000 2000;" xml:space="preserve">
<style type="text/css">
	.st0{clip-path:url(#SVGID_2_);fill:#0E103F;}
	.st1{clip-path:url(#SVGID_2_);fill:#D0B58C;}
</style>
<g>
	<defs>
		<rect id="SVGID_1_" width="2000" height="2000"/>
	</defs>
	<clipPath id="SVGID_2_">
		<use xlink:href="#SVGID_1_"  style="overflow:visible;"/>
	</clipPath>
	<path class="st0" d="M476.7,1092.75h79.05v4.69c-12.58,0.37-20.52,2-23.82,4.91c-3.31,2.91-4.96,9.38-4.96,19.41v93.44
		c0,8.87,1.23,14.54,3.71,17.01c2.47,2.47,9.05,3.71,19.73,3.71c18.97,0,32.71-5.6,41.21-16.79c8.5-11.19,13.67-30.31,15.48-57.35
		h4.25v78.83H476.7v-4.69c12.65-0.36,20.61-2,23.88-4.91c3.27-2.91,4.91-9.38,4.91-19.41v-89.84c0-9.96-1.64-16.41-4.91-19.35
		c-3.27-2.94-11.23-4.6-23.88-4.96V1092.75z"/>
	<path class="st0" d="M608.64,1147.05h38.27v70.11c0,7.05,1.13,12.2,3.38,15.43c2.25,3.23,5.82,4.85,10.69,4.85
		c8.36,0,15.21-4.82,20.55-14.45c5.34-9.63,8.01-22.37,8.01-38.22v-16.57c0-6.61-1.54-11.01-4.63-13.19
		c-3.09-2.18-9.43-3.27-19.03-3.27h-2.29v-4.69h43.07v74.14c0,6.54,0.96,10.63,2.89,12.27c1.92,1.64,6.34,2.45,13.25,2.45h2.4v4.69
		l-35.65,0.87v-27.04c-3.05,9.38-7.32,16.45-12.81,21.21c-5.49,4.76-12.09,7.14-19.79,7.14c-9.23,0-16.08-2.92-20.55-8.78
		c-4.47-5.85-6.71-14.81-6.71-26.88v-38.38c0-6.61-1.35-11.1-4.03-13.47c-2.69-2.36-7.82-3.54-15.37-3.54h-1.64V1147.05z"/>
	<path class="st0" d="M791.5,1143.45h4.25v38.16h-4.25c-3.27-10.61-7.9-18.92-13.9-24.91c-6-6-12.67-8.99-20.01-8.99
		c-5.02,0-8.94,1.27-11.78,3.82c-2.83,2.55-4.25,6.04-4.25,10.47c0,4.58,1.38,8.32,4.14,11.23c2.76,2.91,8.21,6.03,16.36,9.38
		c16.93,6.76,27.95,12.58,33.04,17.44c5.09,4.87,7.63,10.72,7.63,17.56c0,8-2.74,14.46-8.23,19.41c-5.49,4.94-12.74,7.41-21.75,7.41
		c-6.69,0-13.27-2.13-19.73-6.38c-6.47-4.25-10.07-6.38-10.79-6.38c-1.6,0-3,0.93-4.2,2.78c-1.2,1.85-2.49,5.25-3.87,10.2h-4.03
		v-43.07h3.82c4,12.29,9.3,21.79,15.92,28.51c6.61,6.72,13.96,10.09,22.02,10.09c5.23,0,9.45-1.43,12.65-4.31
		c3.2-2.87,4.8-6.63,4.8-11.28c0-4.36-1.27-7.91-3.82-10.63c-2.55-2.73-8.18-5.98-16.9-9.76c-16.79-7.27-27.48-13.25-32.06-17.93
		c-4.58-4.69-6.87-10.38-6.87-17.06c0-7.27,2.62-13.41,7.85-18.43c5.23-5.02,11.7-7.52,19.41-7.52c6.47,0,12.63,1.82,18.48,5.45
		c5.85,3.64,8.92,5.45,9.21,5.45c1.38,0,2.65-0.91,3.82-2.73C789.61,1149.59,790.63,1146.94,791.5,1143.45"/>
	<path class="st0" d="M831.74,1106.81h6.21v40.23h28.57v7.09h-28.57v62.58c0,7.71,0.94,13.08,2.84,16.14
		c1.89,3.05,5.12,4.58,9.7,4.58c5.74,0,10.23-2.49,13.47-7.47c3.23-4.98,4.85-11.86,4.85-20.66v-5.13h4.69v6.54
		c0,10.61-2.45,18.77-7.36,24.48c-4.91,5.71-11.9,8.56-20.99,8.56c-8.51,0-14.65-2.51-18.43-7.52c-3.78-5.02-5.67-13.3-5.67-24.86
		v-57.24h-19.73v-5.56c9.6-1.45,16.92-5.65,21.97-12.59C828.34,1129.04,831.16,1119.32,831.74,1106.81"/>
	<path class="st0" d="M956.16,1191.97H893.9v5.78c0,13.89,2.31,24.28,6.92,31.18c4.61,6.91,11.61,10.36,20.99,10.36
		c7.56,0,13.88-2.4,18.97-7.2c5.09-4.8,8.36-11.48,9.81-20.06h4.69c-1.24,10.03-5.11,17.97-11.61,23.82
		c-6.51,5.85-14.7,8.78-24.59,8.78c-12.28,0-22.77-4.91-31.46-14.72c-8.69-9.81-13.03-21.59-13.03-35.33
		c0-13.45,4.45-25.4,13.36-35.87c8.9-10.47,18.84-15.7,29.82-15.7c10.39,0,19.21,4.52,26.44,13.57
		C951.45,1165.64,955.43,1177.43,956.16,1191.97 M917.12,1187.72c8.29,0,13.48-0.85,15.59-2.56c2.11-1.71,3.16-5.4,3.16-11.07
		c0-8.79-1.62-15.46-4.85-20.01c-3.23-4.54-7.94-6.81-14.12-6.81c-7.42,0-13.07,3.14-16.96,9.43c-3.89,6.29-5.83,15.36-5.83,27.2
		v3.82H917.12z"/>
	<path class="st0" d="M991.6,1197.97v27.69c0,4.36,0.64,7.16,1.91,8.4c1.27,1.24,4.09,1.85,8.45,1.85h8.61v4.69h-53.32v-4.69h6.43
		c4.58,0,7.52-0.6,8.83-1.8c1.31-1.2,1.96-4.02,1.96-8.45v-59.21c0-6.54-0.96-10.63-2.89-12.27c-1.93-1.64-6.34-2.45-13.25-2.45
		h-2.4v-4.69l35.22-0.87v26.49c2.62-8.43,6.52-14.99,11.72-19.68c5.2-4.69,11.14-7.03,17.83-7.03c5.67,0,10.28,1.57,13.85,4.69
		c3.56,3.13,5.34,7.2,5.34,12.21c0,4.07-1.13,7.36-3.38,9.87c-2.25,2.51-5.16,3.76-8.72,3.76c-3.27,0-6.02-1.13-8.23-3.38
		c-2.22-2.25-3.33-5.05-3.33-8.4c0-4.87,2.4-8.43,7.2-10.69c1.31-0.58,1.96-1.05,1.96-1.42c0-0.29-0.76-0.69-2.29-1.2
		c-1.53-0.51-3.09-0.76-4.69-0.76c-7.49,0-13.83,4.51-19.03,13.52C994.2,1173.18,991.6,1184.45,991.6,1197.97"/>
	<path class="st0" d="M1137.83,1148.57c5.52,12.58,14.54,29.62,27.04,51.14c1.6,2.84,2.8,4.95,3.6,6.33
		c4.94-7.92,8.81-15.23,11.61-21.91c2.8-6.69,4.2-11.81,4.2-15.37c0-4.14-1.76-7.27-5.29-9.38c-3.53-2.11-8.89-3.23-16.08-3.38
		v-4.91h52.44v4.91c-9.67,0.44-20.57,11.99-32.71,34.67c-4.51,8.5-8.18,15.19-11.01,20.06c3.27,5.82,6.85,10.36,10.74,13.63
		c3.89,3.27,7.65,4.91,11.29,4.91c5.3,0,9.47-2.81,12.48-8.45c3.01-5.63,4.52-13.47,4.52-23.5v-1.2h4.91v0.98
		c0,15.27-2.45,27.08-7.36,35.44c-4.91,8.36-11.76,12.54-20.55,12.54c-4.94,0-9.74-1.46-14.39-4.36c-4.65-2.91-9.23-7.34-13.74-13.3
		c-4.14,5.45-9.16,9.76-15.05,12.92c-5.89,3.16-11.81,4.74-17.77,4.74c-11.34,0-20.92-4.24-28.73-12.7
		c-7.81-8.47-11.72-18.73-11.72-30.8c0-9.3,2.78-17.79,8.34-25.46c5.56-7.67,14.12-14.81,25.68-21.42
		c-2.11-5.74-3.65-10.9-4.63-15.48c-0.98-4.58-1.47-8.83-1.47-12.76c0-10.9,3.22-20.1,9.65-27.59c6.43-7.49,14.3-11.23,23.6-11.23
		c6.61,0,12.3,2.06,17.06,6.16c4.76,4.11,7.14,9.07,7.14,14.88c0,6.18-2.89,12.7-8.67,19.57
		C1157.18,1135.11,1148.8,1141.89,1137.83,1148.57 M1121.8,1159.04c-6.11,4.36-10.58,8.94-13.41,13.74s-4.25,10.29-4.25,16.46
		c0,11.49,3.43,21.68,10.3,30.58c6.87,8.9,14.66,13.36,23.39,13.36c3.34,0,6.43-0.71,9.27-2.13c2.83-1.42,6.11-3.98,9.81-7.69
		c-6.4-9.81-12.52-20.08-18.37-30.8C1132.69,1181.85,1127.11,1170.67,1121.8,1159.04 M1135.65,1144.1
		c7.78-4.72,13.66-10.05,17.66-15.97c4-5.92,6-12.27,6-19.03c0-5.52-1.18-9.77-3.54-12.76c-2.36-2.98-5.72-4.47-10.09-4.47
		c-5.31,0-9.65,1.91-13.03,5.73c-3.38,3.81-5.07,8.81-5.07,14.99c0,4.29,0.69,9.18,2.07,14.66
		C1131.03,1132.75,1133.03,1138.36,1135.65,1144.1"/>
	<path class="st0" d="M1382.52,1087.84h5.34v66.84h-4.69c-3.42-19.48-9.96-34.71-19.63-45.68c-9.67-10.97-21.33-16.46-35-16.46
		c-12.58,0-21.83,5.74-27.75,17.23c-5.93,11.48-8.89,29.4-8.89,53.75c0,27.26,3.4,46.96,10.2,59.1
		c6.79,12.14,17.75,18.21,32.87,18.21c14.46,0,26.13-5.02,35-15.05c8.87-10.03,13.67-23.7,14.39-41h4.91
		c-1.02,19.19-6.4,34.15-16.14,44.87c-9.74,10.72-22.82,16.08-39.25,16.08c-7.56,0-14.54-1.24-20.93-3.71
		c-6.4-2.47-12.54-6.29-18.43-11.45c-9.16-8.14-16.28-17.83-21.37-29.06c-5.09-11.23-7.63-22.84-7.63-34.84
		c0-9.52,1.72-18.95,5.18-28.29c3.45-9.34,8.34-17.94,14.67-25.79c6.76-8.21,13.94-14.39,21.53-18.54
		c7.59-4.14,15.68-6.22,24.26-6.22c5.01,0,10.25,1.13,15.7,3.38c5.45,2.25,10.58,5.38,15.37,9.38c0.72,0.65,1.78,1.6,3.16,2.83
		c3.56,3.34,6.21,5.02,7.96,5.02c1.89,0,3.61-1.74,5.18-5.23C1380.1,1099.73,1381.43,1094.6,1382.52,1087.84"/>
	<path class="st0" d="M1440.64,1142.79c4.36,0,8.56,0.75,12.59,2.24c4.03,1.49,7.8,3.73,11.28,6.71
		c6.32,5.52,11.25,11.99,14.77,19.41c3.52,7.41,5.29,14.94,5.29,22.57c0,7.71-1.78,15.32-5.34,22.84
		c-3.56,7.52-8.47,13.9-14.72,19.14c-3.34,2.91-7.07,5.12-11.18,6.65c-4.11,1.53-8.34,2.29-12.7,2.29c-3.42,0-6.8-0.51-10.14-1.53
		c-3.34-1.02-6.58-2.51-9.7-4.47c-7.05-4.58-12.85-11.05-17.39-19.41c-4.54-8.36-6.82-16.86-6.82-25.51
		c0-13.3,4.43-25.11,13.3-35.44C1418.76,1147.96,1429.01,1142.79,1440.64,1142.79 M1440.64,1147.27c-8.22,0-14.36,3.85-18.43,11.56
		c-4.07,7.7-6.11,19.34-6.11,34.89c0,15.48,2.03,27.09,6.11,34.84c4.07,7.74,10.21,11.61,18.43,11.61c8.29,0,14.48-3.87,18.59-11.61
		c4.1-7.74,6.16-19.35,6.16-34.84c0-15.63-2.06-27.27-6.16-34.94C1455.12,1151.1,1448.93,1147.27,1440.64,1147.27"/>
	<path class="st0" d="M1511.41,1220.54c3.27,0,6.07,1.13,8.4,3.38c2.33,2.25,3.49,4.98,3.49,8.18c0,3.34-1.13,6.13-3.38,8.34
		c-2.25,2.22-5.09,3.33-8.5,3.33c-3.2,0-5.93-1.13-8.18-3.38c-2.25-2.25-3.38-5.02-3.38-8.29c0-3.12,1.14-5.83,3.43-8.12
		C1505.58,1221.68,1508.28,1220.54,1511.41,1220.54"/>
	<path class="st0" d="M609.8,1343.1v-4.01h3.09c2.18,0,3.62-0.3,4.32-0.88c0.7-0.59,1.05-2.14,1.05-4.67v-31.48
		c0-2.5-0.34-4.05-1.03-4.63c-0.69-0.59-2.13-0.88-4.34-0.88h-3.09v-3.97h24.56c6.15,0,10.75,0.39,13.79,1.18
		c3.04,0.78,5.67,2.1,7.91,3.93c2.72,2.23,4.79,5.06,6.21,8.48c1.42,3.42,2.13,7.3,2.13,11.64c0,3.97-0.66,7.66-1.99,11.05
		c-1.32,3.39-3.18,6.16-5.55,8.29c-2.38,2.16-5.14,3.69-8.29,4.6c-3.15,0.91-7.94,1.36-14.36,1.36H609.8z M625.53,1296.54v42.55
		h8.68c7.67,0,13.26-1.74,16.75-5.22c3.49-3.48,5.24-9.07,5.24-16.77c0-7.01-1.78-12.19-5.33-15.54c-3.56-3.35-9.08-5.02-16.59-5.02
		H625.53z"/>
	<path class="st0" d="M722.3,1343.1v-4.01h3.42c2.18,0,3.61-0.29,4.3-0.88c0.69-0.59,1.03-2.14,1.03-4.67v-31.48
		c0-2.5-0.34-4.05-1.03-4.63c-0.69-0.59-2.12-0.88-4.3-0.88h-3.42v-3.97h24.93v3.97h-3.38c-2.21,0-3.65,0.29-4.32,0.88
		c-0.67,0.59-1.01,2.13-1.01,4.63v31.48c0,2.53,0.34,4.08,1.03,4.67s2.12,0.88,4.3,0.88h3.38v4.01H722.3z"/>
	<path class="st0" d="M800.8,1343.1v-4.01h2.5c1.69,0,2.95-0.29,3.79-0.88c0.83-0.59,1.58-1.74,2.24-3.46l16.25-42.18h6.33
		l16.11,41.85c0.71,1.91,1.5,3.17,2.37,3.77c0.87,0.6,2.16,0.9,3.88,0.9h2.13v4.01h-23.98v-4.01h4.08c1.81,0,3-0.15,3.55-0.44
		c0.55-0.29,0.83-0.9,0.83-1.8c0-0.17-0.05-0.44-0.15-0.79c-0.1-0.36-0.23-0.77-0.4-1.23l-3.16-8.68H817.9l-2.79,7.1
		c-0.42,1.08-0.69,1.89-0.83,2.45c-0.14,0.55-0.2,1.01-0.2,1.38c0,0.78,0.29,1.32,0.88,1.6c0.59,0.28,1.9,0.42,3.93,0.42h3.75v4.01
		H800.8z M819.41,1322.17h16.11l-8.2-21.62L819.41,1322.17z"/>
	<path class="st0" d="M918.38,1302.13c0-2.53-0.35-4.09-1.05-4.69c-0.7-0.6-2.14-0.9-4.32-0.9h-2.94v-3.97h18.46l15.37,39.6
		l15.88-39.6h17.61v3.97h-3.09c-2.18,0-3.62,0.3-4.3,0.9c-0.69,0.6-1.03,2.16-1.03,4.69v31.4c0,2.53,0.34,4.08,1.03,4.67
		c0.69,0.59,2.12,0.88,4.3,0.88h3.09v4.01h-24.45v-4.01h3.53c2.18,0,3.62-0.3,4.3-0.88c0.69-0.59,1.03-2.14,1.03-4.67v-34.86
		l-17.76,44.42h-2.87l-17.76-45.49v35.93c0,2.53,0.34,4.08,1.03,4.67c0.69,0.59,2.12,0.88,4.3,0.88h3.38v4.01h-22.06v-4.01h2.94
		c2.18,0,3.62-0.3,4.32-0.88c0.7-0.59,1.05-2.14,1.05-4.67V1302.13z"/>
	<path class="st0" d="M1035.19,1317.8c0-3.92,0.71-7.57,2.13-10.94c1.42-3.37,3.49-6.33,6.21-8.88c2.38-2.21,5.19-3.91,8.44-5.11
		c3.25-1.2,6.69-1.8,10.31-1.8c3.63,0,7.07,0.6,10.32,1.8c3.25,1.2,6.06,2.91,8.44,5.11c2.74,2.57,4.82,5.53,6.23,8.88
		c1.41,3.35,2.11,6.99,2.11,10.94c0,3.97-0.7,7.64-2.11,11c-1.41,3.36-3.49,6.32-6.23,8.9c-2.38,2.21-5.19,3.91-8.44,5.11
		c-3.25,1.2-6.69,1.8-10.32,1.8c-3.63,0-7.07-0.6-10.31-1.8c-3.25-1.2-6.06-2.91-8.44-5.11c-2.72-2.55-4.79-5.52-6.21-8.9
		C1035.9,1325.41,1035.19,1321.74,1035.19,1317.8 M1043.39,1317.8c0,6.86,1.72,12.34,5.17,16.44c3.44,4.09,8.02,6.14,13.73,6.14
		c5.71,0,10.29-2.05,13.74-6.14c3.44-4.09,5.17-9.57,5.17-16.44c0-6.86-1.72-12.33-5.15-16.4c-3.43-4.07-8.02-6.1-13.75-6.1
		c-5.71,0-10.29,2.03-13.73,6.1C1045.12,1305.47,1043.39,1310.93,1043.39,1317.8"/>
	<path class="st0" d="M1197.93,1343.32h-6.4l-30.96-43.91v34.13c0,2.53,0.34,4.08,1.03,4.67c0.69,0.59,2.12,0.88,4.3,0.88h3.79v4.01
		h-22.47v-4.01h2.94c2.18,0,3.62-0.29,4.32-0.88c0.7-0.59,1.05-2.15,1.05-4.67v-31.4c0-2.52-0.35-4.09-1.05-4.69
		c-0.7-0.6-2.14-0.9-4.32-0.9h-2.94v-3.97h16.95l28.68,40.6v-31.04c0-2.52-0.34-4.09-1.03-4.69c-0.69-0.6-2.12-0.9-4.3-0.9h-4.01
		v-3.97h22.25v3.97h-2.5c-2.18,0-3.62,0.3-4.3,0.9c-0.69,0.6-1.03,2.16-1.03,4.69V1343.32z"/>
	<path class="st0" d="M1262.6,1343.1v-4.01h3.09c2.18,0,3.62-0.3,4.32-0.88c0.7-0.59,1.05-2.14,1.05-4.67v-31.48
		c0-2.5-0.34-4.05-1.03-4.63c-0.69-0.59-2.13-0.88-4.34-0.88h-3.09v-3.97h24.56c6.15,0,10.75,0.39,13.79,1.18
		c3.04,0.78,5.68,2.1,7.91,3.93c2.72,2.23,4.79,5.06,6.21,8.48c1.42,3.42,2.13,7.3,2.13,11.64c0,3.97-0.66,7.66-1.99,11.05
		c-1.32,3.39-3.18,6.16-5.55,8.29c-2.38,2.16-5.14,3.69-8.29,4.6c-3.15,0.91-7.94,1.36-14.36,1.36H1262.6z M1278.34,1296.54v42.55
		h8.68c7.67,0,13.26-1.74,16.75-5.22c3.49-3.48,5.24-9.07,5.24-16.77c0-7.01-1.78-12.19-5.33-15.54c-3.56-3.35-9.08-5.02-16.58-5.02
		H1278.34z"/>
	<path class="st0" d="M1376.1,1343.1v-20.92h4.15c0.78,5.49,2.84,9.81,6.18,12.96c3.33,3.15,7.53,4.72,12.58,4.72
		c3.65,0,6.58-0.87,8.79-2.61c2.21-1.74,3.31-4.03,3.31-6.88c0-2.43-0.83-4.32-2.5-5.68c-1.67-1.36-4.72-2.53-9.16-3.51l-6.25-1.36
		c-6.77-1.52-11.28-3.33-13.55-5.44c-2.27-2.11-3.4-5.21-3.4-9.3c0-4.27,1.64-7.67,4.93-10.21c3.28-2.54,7.72-3.81,13.31-3.81
		c2.77,0,5.39,0.46,7.85,1.38c2.46,0.92,4.86,2.34,7.19,4.25l2.21-4.56h3.53v19.12h-4.08c-0.64-5.1-2.38-9.01-5.24-11.73
		c-2.86-2.72-6.65-4.08-11.38-4.08c-3.73,0-6.63,0.75-8.72,2.26c-2.08,1.51-3.13,3.61-3.13,6.31c0,2.11,0.83,3.82,2.48,5.13
		s4.25,2.31,7.78,3l7.28,1.51c6.47,1.3,11.04,3.1,13.72,5.41c2.67,2.31,4.01,5.55,4.01,9.74c0,4.68-1.73,8.49-5.2,11.42
		c-3.47,2.93-7.99,4.4-13.55,4.4c-3.24,0-6.22-0.58-8.95-1.73c-2.73-1.15-5.35-2.94-7.85-5.37l-2.46,5.59H1376.1z"/>
	<path class="st1" d="M915.58,826.92c13.17-8.63,18.93-18.53,18.54-31.82c-0.59-19.83,1.64-39.03,12.59-56.25
		c7.37-11.58,16.8-20.82,30.7-23.66c22.06-4.5,42.68,16.36,40.39,40.2c-2.63,27.39-18.39,46.43-39.67,61.51
		c-27.2,19.27-55.34,37.24-82.26,56.88c-21.38,15.6-38.32,35.4-46.37,61.31c-13.13,42.26,10.55,86.38,55.06,102.24
		c36.13,12.88,72.07,10.95,105.38-7.67c24.75-13.83,47.46-31.3,71.17-46.99c16.33-10.81,32.93-21.53,53.46-21.42
		c7.66,0.04,15.31,2.47,24.1,4.01c-0.31-10.38-2.69-20.74-7.14-30.42c-13.63-29.7-38.4-44.49-69.37-50.51
		c-30.1-5.85-57.07,2.84-81.84,19.05c-16.77,10.98-32.13,24.11-48.97,34.95c-10.06,6.48-21.36,11.93-32.86,15.03
		c-11.05,2.98-22.33-0.22-29.86-10.23c-7.21-9.58-6.18-19.87-0.93-29.9c3.13-5.98,6.49-11.95,10.56-17.31
		c13.86-18.25,32.79-30.56,51.4-43.29c16.55-11.32,33.29-22.49,48.96-34.96c18.05-14.37,29.29-33.27,31.71-56.74
		c3.8-36.9-21.96-64.39-59.17-63.11c-35.04,1.2-61.44,25.53-65.46,60.4c-1.42,12.34,2.52,23.61,7.57,34.51
		C918.11,803.14,922.64,813.42,915.58,826.92"/>
	<path class="st1" d="M966.34,684.75c-9.82-11.24-19.53-22.36-29.35-33.6c1.4-1.98,2.8-3.97,4.21-5.96c1.23-1.74,2.42-3.5,3.72-5.18
		c0.33-0.43,1.02-0.83,1.54-0.83c13.25-0.05,26.49-0.04,39.74-0.01c0.44,0,1.06,0.18,1.3,0.5c2.75,3.77,5.44,7.58,8.2,11.47
		C985.93,662.33,976.19,673.47,966.34,684.75"/>
</g>
</svg>
