<?xml version="1.0" encoding="utf-8"?>
<!-- Generator: Adobe Illustrator 27.0.0, SVG Export Plug-In . SVG Version: 6.00 Build 0)  -->
<svg version="1.1" id="Layer_1" xmlns="http://www.w3.org/2000/svg" xmlns:xlink="http://www.w3.org/1999/xlink" x="0px" y="0px"
	 viewBox="0 0 2000 2000" style="enable-background:new 0 0 2000 2000;" xml:space="preserve">
<style type="text/css">
	.st0{fill:#D0B58C;}
	.st1{fill:#0E103F;}
	.st2{fill:#FFFFFF;}
</style>
<rect x="-10.7" y="-12.2" class="st0" width="2024.5" height="2024.5"/>
<g>
	<g>
		<g>
			<path class="st1" d="M498.5,1100.2H574v4.5c-12,0.3-19.6,1.9-22.7,4.7c-3.2,2.8-4.7,9-4.7,18.5v89.2c0,8.5,1.2,13.9,3.5,16.2
				c2.4,2.4,8.6,3.5,18.8,3.5c18.1,0,31.2-5.3,39.4-16c8.1-10.7,13-28.9,14.8-54.8h4.1v75.3H498.5v-4.5c12.1-0.3,19.7-1.9,22.8-4.7
				c3.1-2.8,4.7-9,4.7-18.5v-85.8c0-9.5-1.6-15.7-4.7-18.5c-3.1-2.8-10.7-4.4-22.8-4.7V1100.2z"/>
			<path class="st1" d="M624.5,1152H661v66.9c0,6.7,1.1,11.6,3.2,14.7c2.1,3.1,5.6,4.6,10.2,4.6c8,0,14.5-4.6,19.6-13.8
				c5.1-9.2,7.7-21.4,7.7-36.5v-15.8c0-6.3-1.5-10.5-4.4-12.6c-3-2.1-9-3.1-18.2-3.1h-2.2v-4.5h41.1v70.8c0,6.2,0.9,10.2,2.8,11.7
				c1.8,1.6,6.1,2.3,12.6,2.3h2.3v4.5l-34,0.8v-25.8c-2.9,9-7,15.7-12.2,20.2c-5.2,4.5-11.5,6.8-18.9,6.8c-8.8,0-15.4-2.8-19.6-8.4
				c-4.3-5.6-6.4-14.1-6.4-25.7v-36.6c0-6.3-1.3-10.6-3.9-12.9c-2.6-2.3-7.5-3.4-14.7-3.4h-1.6V1152z"/>
			<path class="st1" d="M799.1,1148.6h4.1v36.4h-4.1c-3.1-10.1-7.5-18.1-13.3-23.8c-5.7-5.7-12.1-8.6-19.1-8.6
				c-4.8,0-8.5,1.2-11.2,3.6c-2.7,2.4-4.1,5.8-4.1,10c0,4.4,1.3,7.9,4,10.7c2.6,2.8,7.8,5.8,15.6,9c16.2,6.5,26.7,12,31.5,16.7
				c4.9,4.7,7.3,10.2,7.3,16.8c0,7.6-2.6,13.8-7.9,18.5c-5.2,4.7-12.2,7.1-20.8,7.1c-6.4,0-12.7-2-18.8-6.1
				c-6.2-4.1-9.6-6.1-10.3-6.1c-1.5,0-2.9,0.9-4,2.7s-2.4,5-3.7,9.7h-3.9v-41.1h3.6c3.8,11.7,8.9,20.8,15.2,27.2
				c6.3,6.4,13.3,9.6,21,9.6c5,0,9-1.4,12.1-4.1c3.1-2.7,4.6-6.3,4.6-10.8c0-4.2-1.2-7.5-3.6-10.2c-2.4-2.6-7.8-5.7-16.1-9.3
				c-16-6.9-26.2-12.6-30.6-17.1c-4.4-4.5-6.6-9.9-6.6-16.3c0-6.9,2.5-12.8,7.5-17.6c5-4.8,11.2-7.2,18.5-7.2
				c6.2,0,12.1,1.7,17.6,5.2c5.6,3.5,8.5,5.2,8.8,5.2c1.3,0,2.5-0.9,3.6-2.6C797.3,1154.5,798.2,1151.9,799.1,1148.6z"/>
			<path class="st1" d="M837.5,1113.6h5.9v38.4h27.3v6.8h-27.3v59.8c0,7.4,0.9,12.5,2.7,15.4c1.8,2.9,4.9,4.4,9.3,4.4
				c5.5,0,9.8-2.4,12.9-7.1c3.1-4.8,4.6-11.3,4.6-19.7v-4.9h4.5v6.2c0,10.1-2.3,17.9-7,23.4c-4.7,5.4-11.4,8.2-20,8.2
				c-8.1,0-14-2.4-17.6-7.2c-3.6-4.8-5.4-12.7-5.4-23.7v-54.7h-18.8v-5.3c9.2-1.4,16.2-5.4,21-12
				C834.2,1134.8,836.9,1125.5,837.5,1113.6z"/>
			<path class="st1" d="M956.3,1194.9h-59.4v5.5c0,13.3,2.2,23.2,6.6,29.8c4.4,6.6,11.1,9.9,20,9.9c7.2,0,13.3-2.3,18.1-6.9
				c4.9-4.6,8-11,9.4-19.2h4.5c-1.2,9.6-4.9,17.2-11.1,22.7c-6.2,5.6-14,8.4-23.5,8.4c-11.7,0-21.7-4.7-30-14.1
				c-8.3-9.4-12.4-20.6-12.4-33.7c0-12.8,4.3-24.3,12.8-34.3c8.5-10,18-15,28.5-15c9.9,0,18.3,4.3,25.2,13
				C951.8,1169.8,955.6,1181,956.3,1194.9z M919,1190.9c7.9,0,12.9-0.8,14.9-2.4c2-1.6,3-5.2,3-10.6c0-8.4-1.5-14.8-4.6-19.1
				c-3.1-4.3-7.6-6.5-13.5-6.5c-7.1,0-12.5,3-16.2,9c-3.7,6-5.6,14.7-5.6,26v3.6H919z"/>
			<path class="st1" d="M990.1,1200.6v26.4c0,4.2,0.6,6.8,1.8,8c1.2,1.2,3.9,1.8,8.1,1.8h8.2v4.5h-50.9v-4.5h6.1
				c4.4,0,7.2-0.6,8.4-1.7c1.2-1.1,1.9-3.8,1.9-8.1v-56.5c0-6.2-0.9-10.2-2.8-11.7c-1.8-1.6-6.1-2.3-12.6-2.3h-2.3v-4.5l33.6-0.8
				v25.3c2.5-8.1,6.2-14.3,11.2-18.8c5-4.5,10.6-6.7,17-6.7c5.4,0,9.8,1.5,13.2,4.5c3.4,3,5.1,6.9,5.1,11.7c0,3.9-1.1,7-3.2,9.4
				c-2.1,2.4-4.9,3.6-8.3,3.6c-3.1,0-5.7-1.1-7.9-3.2c-2.1-2.2-3.2-4.8-3.2-8c0-4.6,2.3-8.1,6.9-10.2c1.2-0.6,1.9-1,1.9-1.4
				c0-0.3-0.7-0.7-2.2-1.1c-1.5-0.5-2.9-0.7-4.5-0.7c-7.1,0-13.2,4.3-18.2,12.9C992.6,1177,990.1,1187.7,990.1,1200.6z"/>
			<path class="st1" d="M1129.8,1153.5c5.3,12,13.9,28.3,25.8,48.8c1.5,2.7,2.7,4.7,3.4,6c4.7-7.6,8.4-14.5,11.1-20.9
				c2.7-6.4,4-11.3,4-14.7c0-4-1.7-6.9-5-9c-3.4-2-8.5-3.1-15.4-3.2v-4.7h50.1v4.7c-9.2,0.4-19.6,11.5-31.2,33.1
				c-4.3,8.1-7.8,14.5-10.5,19.2c3.1,5.6,6.5,9.9,10.3,13c3.7,3.1,7.3,4.7,10.8,4.7c5.1,0,9-2.7,11.9-8.1c2.9-5.4,4.3-12.9,4.3-22.4
				v-1.1h4.7v0.9c0,14.6-2.3,25.9-7,33.8c-4.7,8-11.2,12-19.6,12c-4.7,0-9.3-1.4-13.7-4.2c-4.4-2.8-8.8-7-13.1-12.7
				c-4,5.2-8.7,9.3-14.4,12.3c-5.6,3-11.3,4.5-17,4.5c-10.8,0-20-4-27.4-12.1c-7.5-8.1-11.2-17.9-11.2-29.4c0-8.9,2.7-17,8-24.3
				c5.3-7.3,13.5-14.1,24.5-20.5c-2-5.5-3.5-10.4-4.4-14.8c-0.9-4.4-1.4-8.4-1.4-12.2c0-10.4,3.1-19.2,9.2-26.3
				c6.1-7.1,13.7-10.7,22.5-10.7c6.3,0,11.7,2,16.3,5.9c4.5,3.9,6.8,8.7,6.8,14.2c0,5.9-2.8,12.1-8.3,18.7
				C1148.2,1140.6,1140.2,1147.1,1129.8,1153.5z M1114.4,1163.5c-5.8,4.2-10.1,8.5-12.8,13.1c-2.7,4.6-4.1,9.8-4.1,15.7
				c0,11,3.3,20.7,9.8,29.2c6.6,8.5,14,12.8,22.3,12.8c3.2,0,6.1-0.7,8.8-2c2.7-1.4,5.8-3.8,9.4-7.3c-6.1-9.4-12-19.2-17.5-29.4
				C1124.8,1185.2,1119.5,1174.6,1114.4,1163.5z M1127.7,1149.2c7.4-4.5,13-9.6,16.9-15.3c3.8-5.7,5.7-11.7,5.7-18.2
				c0-5.3-1.1-9.3-3.4-12.2c-2.3-2.8-5.5-4.3-9.6-4.3c-5.1,0-9.2,1.8-12.4,5.5c-3.2,3.6-4.8,8.4-4.8,14.3c0,4.1,0.7,8.8,2,14
				C1123.3,1138.4,1125.2,1143.7,1127.7,1149.2z"/>
			<path class="st1" d="M1363.4,1095.5h5.1v63.8h-4.5c-3.3-18.6-9.5-33.1-18.7-43.6c-9.2-10.5-20.4-15.7-33.4-15.7
				c-12,0-20.8,5.5-26.5,16.4c-5.7,11-8.5,28.1-8.5,51.3c0,26,3.2,44.8,9.7,56.4c6.5,11.6,17,17.4,31.4,17.4
				c13.8,0,25-4.8,33.4-14.4c8.5-9.6,13-22.6,13.7-39.1h4.7c-1,18.3-6.1,32.6-15.4,42.8c-9.3,10.2-21.8,15.4-37.5,15.4
				c-7.2,0-13.9-1.2-20-3.5c-6.1-2.4-12-6-17.6-10.9c-8.7-7.8-15.5-17-20.4-27.7c-4.9-10.7-7.3-21.8-7.3-33.3c0-9.1,1.6-18.1,4.9-27
				c3.3-8.9,8-17.1,14-24.6c6.5-7.8,13.3-13.7,20.6-17.7c7.3-4,15-5.9,23.2-5.9c4.8,0,9.8,1.1,15,3.2c5.2,2.2,10.1,5.1,14.7,9
				c0.7,0.6,1.7,1.5,3,2.7c3.4,3.2,5.9,4.8,7.6,4.8c1.8,0,3.5-1.7,4.9-5C1361.1,1106.8,1362.3,1101.9,1363.4,1095.5z"/>
			<path class="st1" d="M1418.9,1148c4.2,0,8.2,0.7,12,2.1c3.9,1.4,7.4,3.6,10.8,6.4c6,5.3,10.7,11.5,14.1,18.5
				c3.4,7.1,5,14.3,5,21.5c0,7.4-1.7,14.6-5.1,21.8c-3.4,7.2-8.1,13.3-14.1,18.3c-3.2,2.8-6.7,4.9-10.7,6.4c-3.9,1.5-8,2.2-12.1,2.2
				c-3.3,0-6.5-0.5-9.7-1.5c-3.2-1-6.3-2.4-9.3-4.3c-6.7-4.4-12.3-10.5-16.6-18.5c-4.3-8-6.5-16.1-6.5-24.4c0-12.7,4.2-24,12.7-33.8
				C1398,1152.9,1407.8,1148,1418.9,1148z M1418.9,1152.2c-7.8,0-13.7,3.7-17.6,11c-3.9,7.4-5.8,18.5-5.8,33.3
				c0,14.8,1.9,25.9,5.8,33.3c3.9,7.4,9.7,11.1,17.6,11.1c7.9,0,13.8-3.7,17.8-11.1c3.9-7.4,5.9-18.5,5.9-33.3c0-14.9-2-26-5.9-33.4
				C1432.7,1155.9,1426.8,1152.2,1418.9,1152.2z"/>
			<path class="st1" d="M1486.4,1222.2c3.1,0,5.8,1.1,8,3.2c2.2,2.2,3.3,4.8,3.3,7.8c0,3.2-1.1,5.8-3.2,8c-2.2,2.1-4.9,3.2-8.1,3.2
				c-3.1,0-5.7-1.1-7.8-3.2c-2.2-2.2-3.2-4.8-3.2-7.9c0-3,1.1-5.6,3.3-7.8C1480.9,1223.3,1483.5,1222.2,1486.4,1222.2z"/>
		</g>
		<g>
			<path class="st1" d="M614.5,1339.2v-3.8h2.9c2.1,0,3.5-0.3,4.1-0.8c0.7-0.6,1-2,1-4.5V1300c0-2.4-0.3-3.9-1-4.4
				c-0.7-0.6-2-0.8-4.1-0.8h-2.9v-3.8H638c5.9,0,10.3,0.4,13.2,1.1c2.9,0.7,5.4,2,7.5,3.8c2.6,2.1,4.6,4.8,5.9,8.1
				c1.4,3.3,2,7,2,11.1c0,3.8-0.6,7.3-1.9,10.6c-1.3,3.2-3,5.9-5.3,7.9c-2.3,2.1-4.9,3.5-7.9,4.4c-3,0.9-7.6,1.3-13.7,1.3H614.5z
				 M629.5,1294.8v40.6h8.3c7.3,0,12.7-1.7,16-5c3.3-3.3,5-8.7,5-16c0-6.7-1.7-11.6-5.1-14.8c-3.4-3.2-8.7-4.8-15.8-4.8H629.5z"/>
			<path class="st1" d="M721.9,1339.2v-3.8h3.3c2.1,0,3.5-0.3,4.1-0.8c0.7-0.6,1-2,1-4.5V1300c0-2.4-0.3-3.9-1-4.4
				c-0.7-0.6-2-0.8-4.1-0.8h-3.3v-3.8h23.8v3.8h-3.2c-2.1,0-3.5,0.3-4.1,0.8c-0.6,0.6-1,2-1,4.4v30.1c0,2.4,0.3,3.9,1,4.5
				c0.7,0.6,2,0.8,4.1,0.8h3.2v3.8H721.9z"/>
			<path class="st1" d="M796.9,1339.2v-3.8h2.4c1.6,0,2.8-0.3,3.6-0.8c0.8-0.6,1.5-1.7,2.1-3.3l15.5-40.3h6l15.4,40
				c0.7,1.8,1.4,3,2.3,3.6c0.8,0.6,2.1,0.9,3.7,0.9h2v3.8h-22.9v-3.8h3.9c1.7,0,2.9-0.1,3.4-0.4c0.5-0.3,0.8-0.9,0.8-1.7
				c0-0.2,0-0.4-0.1-0.8c-0.1-0.3-0.2-0.7-0.4-1.2l-3-8.3h-18.4l-2.7,6.8c-0.4,1-0.7,1.8-0.8,2.3c-0.1,0.5-0.2,1-0.2,1.3
				c0,0.7,0.3,1.3,0.8,1.5s1.8,0.4,3.8,0.4h3.6v3.8H796.9z M814.6,1319.2H830l-7.8-20.6L814.6,1319.2z"/>
			<path class="st1" d="M909.1,1300.1c0-2.4-0.3-3.9-1-4.5c-0.7-0.6-2-0.9-4.1-0.9h-2.8v-3.8h17.6l14.7,37.8l15.2-37.8h16.8v3.8
				h-2.9c-2.1,0-3.5,0.3-4.1,0.9c-0.7,0.6-1,2.1-1,4.5v30c0,2.4,0.3,3.9,1,4.5c0.7,0.6,2,0.8,4.1,0.8h2.9v3.8h-23.3v-3.8h3.4
				c2.1,0,3.5-0.3,4.1-0.8c0.7-0.6,1-2,1-4.5v-33.3l-17,42.4h-2.7l-17-43.4v34.3c0,2.4,0.3,3.9,1,4.5c0.7,0.6,2,0.8,4.1,0.8h3.2v3.8
				h-21.1v-3.8h2.8c2.1,0,3.5-0.3,4.1-0.8c0.7-0.6,1-2,1-4.5V1300.1z"/>
			<path class="st1" d="M1020.7,1315.1c0-3.7,0.7-7.2,2-10.4c1.4-3.2,3.3-6,5.9-8.5c2.3-2.1,5-3.7,8.1-4.9c3.1-1.1,6.4-1.7,9.8-1.7
				c3.5,0,6.7,0.6,9.8,1.7c3.1,1.1,5.8,2.8,8.1,4.9c2.6,2.5,4.6,5.3,6,8.5c1.3,3.2,2,6.7,2,10.4c0,3.8-0.7,7.3-2,10.5
				c-1.3,3.2-3.3,6-6,8.5c-2.3,2.1-5,3.7-8.1,4.9c-3.1,1.1-6.4,1.7-9.8,1.7c-3.5,0-6.7-0.6-9.8-1.7c-3.1-1.1-5.8-2.8-8.1-4.9
				c-2.6-2.4-4.6-5.3-5.9-8.5C1021.3,1322.3,1020.7,1318.8,1020.7,1315.1z M1028.5,1315.1c0,6.6,1.6,11.8,4.9,15.7
				c3.3,3.9,7.7,5.9,13.1,5.9c5.5,0,9.8-2,13.1-5.9c3.3-3.9,4.9-9.1,4.9-15.7c0-6.6-1.6-11.8-4.9-15.7c-3.3-3.9-7.7-5.8-13.1-5.8
				c-5.5,0-9.8,1.9-13.1,5.8C1030.1,1303.3,1028.5,1308.5,1028.5,1315.1z"/>
			<path class="st1" d="M1176.1,1339.4h-6.1l-29.6-41.9v32.6c0,2.4,0.3,3.9,1,4.5c0.7,0.6,2,0.8,4.1,0.8h3.6v3.8h-21.5v-3.8h2.8
				c2.1,0,3.5-0.3,4.1-0.8c0.7-0.6,1-2,1-4.5v-30c0-2.4-0.3-3.9-1-4.5s-2-0.9-4.1-0.9h-2.8v-3.8h16.2l27.4,38.8v-29.6
				c0-2.4-0.3-3.9-1-4.5c-0.7-0.6-2-0.9-4.1-0.9h-3.8v-3.8h21.2v3.8h-2.4c-2.1,0-3.5,0.3-4.1,0.9c-0.7,0.6-1,2.1-1,4.5V1339.4z"/>
			<path class="st1" d="M1237.8,1339.2v-3.8h3c2.1,0,3.5-0.3,4.1-0.8c0.7-0.6,1-2,1-4.5V1300c0-2.4-0.3-3.9-1-4.4
				c-0.7-0.6-2-0.8-4.1-0.8h-3v-3.8h23.5c5.9,0,10.3,0.4,13.2,1.1c2.9,0.7,5.4,2,7.5,3.8c2.6,2.1,4.6,4.8,5.9,8.1s2,7,2,11.1
				c0,3.8-0.6,7.3-1.9,10.6c-1.3,3.2-3,5.9-5.3,7.9c-2.3,2.1-4.9,3.5-7.9,4.4c-3,0.9-7.6,1.3-13.7,1.3H1237.8z M1252.8,1294.8v40.6
				h8.3c7.3,0,12.7-1.7,16-5c3.3-3.3,5-8.7,5-16c0-6.7-1.7-11.6-5.1-14.8c-3.4-3.2-8.7-4.8-15.8-4.8H1252.8z"/>
			<path class="st1" d="M1346.2,1339.2v-20h4c0.7,5.2,2.7,9.4,5.9,12.4c3.2,3,7.2,4.5,12,4.5c3.5,0,6.3-0.8,8.4-2.5
				c2.1-1.7,3.2-3.8,3.2-6.6c0-2.3-0.8-4.1-2.4-5.4c-1.6-1.3-4.5-2.4-8.7-3.4l-6-1.3c-6.5-1.5-10.8-3.2-12.9-5.2
				c-2.2-2-3.2-5-3.2-8.9c0-4.1,1.6-7.3,4.7-9.7c3.1-2.4,7.4-3.6,12.7-3.6c2.6,0,5.1,0.4,7.5,1.3c2.4,0.9,4.6,2.2,6.9,4.1l2.1-4.4
				h3.4v18.3h-3.9c-0.6-4.9-2.3-8.6-5-11.2c-2.7-2.6-6.3-3.9-10.9-3.9c-3.6,0-6.3,0.7-8.3,2.2s-3,3.4-3,6c0,2,0.8,3.6,2.4,4.9
				c1.6,1.3,4.1,2.2,7.4,2.9l7,1.4c6.2,1.2,10.5,3,13.1,5.2c2.6,2.2,3.8,5.3,3.8,9.3c0,4.5-1.7,8.1-5,10.9
				c-3.3,2.8-7.6,4.2-12.9,4.2c-3.1,0-5.9-0.6-8.5-1.7c-2.6-1.1-5.1-2.8-7.5-5.1l-2.4,5.3H1346.2z"/>
		</g>
	</g>
	<g>
		<g>
			<g>
				<path class="st1" d="M1114.8,820.6l-56.2,30.1h80.5v73.6c-71.9,29.3-111.8,80.8-113.3,160.2h-39.5
					c-1.1-40.4,8.7-77.7,30.4-111.7c18.7-29.2,43.8-51.6,73.5-69.2c3.8-2.3,6.5-6.5,9.7-9.8c-0.7-0.9-1.3-1.9-2-2.8H892.3
					c4.6,23.7,25.9,39.8,60.6,45.2v37.5C893.1,981,841,920.4,847.7,850.7h94.4l-56.3-30.1c-68.2-38.4-55.7-114.5-55.5-115.3l1.1-6.1
					l32.4,7.7l-1,5.4c-5.2,28.1,9.4,51.5,20.4,64.6c0.8-27.3,19-45.8,19.9-46.8l3.4-3.4l26.4,17.9l-3.4,4.8
					c-10,14.4-14,27.3-11.6,38.1c2.3,10.8,10.2,16.2,10.9,16.7l71.4,39.1l71.4-39.1c0.8-0.5,8.7-5.9,11-16.9
					c2.2-10.8-1.7-23.6-11.7-38l-3.4-4.8l26.4-17.9l3.4,3.4c0.9,0.9,19.1,19.5,19.9,46.8c11.1-13.1,25.6-36.5,20.4-64.6l-1-5.4
					l32.4-7.7l1.1,6.1c0.1,0.8,12.7,76.9-55.4,115.2L1114.8,820.6z"/>
			</g>
		</g>
		<g>
			<path class="st1" d="M1039.1,646.2h-77.9l-32.3,37.9l70.6,74.9l72.3-73.9L1039.1,646.2z M1001,727.7l-29-36.6l29-29l29,29
				L1001,727.7z"/>
		</g>
	</g>
</g>
</svg>
