<svg xml:space="preserve" style="max-height: 500px" viewBox="696 632 620 764" y="0px" x="0px" xmlns:xlink="http://www.w3.org/1999/xlink" xmlns="http://www.w3.org/2000/svg" id="Layer_1" version="1.1" width="620" height="764">
<style type="text/css">
	.st0{fill:#D0B58C;}
	.st1{fill:#0E103F;}
	.st2{fill:#FFFFFF;}
</style>
<g>
	<g>
		<g>
			<g>
				<path d="M1183.6,928.1l-90.2,48.4h129.2v118.1c-115.4,47.1-179.4,129.7-181.7,257h-63.4&#10;&#9;&#9;&#9;&#9;&#9;c-1.8-64.9,14-124.7,48.9-179.3c30-46.8,70.3-82.8,118-111.1c6.1-3.6,10.5-10.4,15.6-15.7c-1.1-1.5-2.2-3-3.2-4.5H826.6&#10;&#9;&#9;&#9;&#9;&#9;c7.4,38.1,41.6,63.8,97.3,72.6v60.2c-96,11.9-179.5-85.4-168.8-197.3h151.5l-90.3-48.4c-109.5-61.5-89.3-183.8-89.1-185l1.7-9.7&#10;&#9;&#9;&#9;&#9;&#9;l52,12.3l-1.6,8.7c-8.4,45,15,82.6,32.8,103.6c1.2-43.8,30.4-73.6,31.9-75.1l5.4-5.4l42.4,28.7l-5.4,7.7&#10;&#9;&#9;&#9;&#9;&#9;c-16.1,23.1-22.4,43.8-18.6,61.2c3.7,17.3,16.3,26,17.6,26.8l114.6,62.7l114.6-62.7c1.3-0.9,14-9.5,17.6-27.1&#10;&#9;&#9;&#9;&#9;&#9;c3.6-17.4-2.7-37.9-18.7-60.9l-5.4-7.7l42.4-28.7l5.4,5.4c1.5,1.5,30.7,31.3,31.9,75.1c17.7-21,41.2-58.6,32.8-103.6l-1.6-8.7&#10;&#9;&#9;&#9;&#9;&#9;l52-12.3l1.7,9.7c0.2,1.2,20.4,123.5-88.9,184.9L1183.6,928.1z" class="st0"/>
			</g>
		</g>
		<g>
			<path d="M1062.2,648.4H937.3l-51.9,60.9l113.3,120.2l115.9-118.6L1062.2,648.4z M1001.1,779.1l-46.6-58.7l46.6-46.6&#10;&#9;&#9;&#9;&#9;l46.6,46.6L1001.1,779.1z" class="st0"/>
		</g>
	</g>
</g>
</svg>
